<svg 
    height="512"
    viewBox="0 0 128 128"
    width="512"
    xmlns="http://www.w3.org/2000/svg"
>
    <path d="m15.236 106.414h97.528a5.492 5.492 0 0 0 5.486-5.486v-34.121a4.241 4.241 0 0 0 1.6-3.3v-25.382a6.1 6.1 0 0 0 -6.088-6.088h-26.4v-8.073a5.858 5.858 0 0 0 -5.852-5.852h-35.022a5.859 5.859 0 0 0 -5.853 5.852v8.073h-26.4a6.1 6.1 0 0 0 -6.085 6.088v25.381a4.242 4.242 0 0 0 1.6 3.3v34.12a5.492 5.492 0 0 0 5.486 5.488zm97.528-3.5h-97.528a1.988 1.988 0 0 1 -1.986-1.986v-32.919l43.5 8.846v7.932a1.75 1.75 0 0 0 1.75 1.75h11a1.75 1.75 0 0 0 1.75-1.75v-7.932l43.5-8.846v32.919a1.988 1.988 0 0 1 -1.986 1.986zm-45.014-27.496v7.619h-7.5v-8.25a3.75 3.75 0 0 1 7.5 0zm-23.615-51.454a2.355 2.355 0 0 1 2.353-2.352h35.025a2.355 2.355 0 0 1 2.352 2.352v8.073h-2.615v-6.2a1.75 1.75 0 0 0 -1.75-1.75h-31a1.75 1.75 0 0 0 -1.75 1.75v6.2h-2.615zm6.115 8.073v-4.446h27.5v4.446zm-38.6 6.088a2.592 2.592 0 0 1 2.588-2.588h99.524a2.592 2.592 0 0 1 2.588 2.588v25.381a.742.742 0 0 1 -.595.727l-44.655 9.081a7.25 7.25 0 0 0 -14.2 0l-44.657-9.081a.742.742 0 0 1 -.593-.727z" fill='#fff'/>
    <path d="m64 72.287a2.5 2.5 0 1 0 2.5 2.5 2.5 2.5 0 0 0 -2.5-2.5z" fill='#fff'/>
    <path d="m48.5 51.821h31a1.75 1.75 0 0 0 1.75-1.75v-6.13a1.75 1.75 0 0 0 -1.75-1.75h-31a1.75 1.75 0 0 0 -1.75 1.75v6.13a1.75 1.75 0 0 0 1.75 1.75zm1.75-6.13h27.5v2.63h-27.5z" fill='#fff'/>
</svg>