<svg id="Capa_1" enable-background="new 0 0 509.032 509.032" height="512" viewBox="0 0 509.032 509.032" width="512" xmlns="http://www.w3.org/2000/svg">
<g id="XMLID_330_">
<path id="XMLID_331_" d="m254.494 236.432-30.038-70.889h-29.962v150h30v-73.056l30.538 73.056h29.462v-150h-30z" fill='#fff'/>
<path id="XMLID_343_" d="m89.494 315.543h75v-30h-45v-30h30v-30h-30v-30h45v-30h-75z" fill='#fff'/>
<path id="XMLID_346_" d="m424.2 70.348c-93.789-93.789-245.608-93.805-339.411 0-88.042 88.041-92.454 225.193-18.509 318.607l-31.956 120.077 123.571-49.228c87.117 38.404 193.666 22.594 266.305-50.045 93.79-93.789 93.804-245.608 0-339.411zm-169.706 379.706c-55.502 0-91.428-21.395-95.678-22.909l-80.152 31.931 20.597-77.396c-1.967-3.304-54.767-54.282-54.767-141.625 0-115.794 94.206-210 210-210s210 94.206 210 210-94.206 209.999-210 209.999z" fill='#fff'/>
<path id="XMLID_347_" d="m366.994 195.543h52.5v-30h-52.5c-28.948 0-52.5 23.062-52.5 52.011v45c0 28.948 23.552 52.989 52.5 52.989h52.5v-90h-45v30h15v30h-22.5c-12.406 0-22.5-10.582-22.5-22.989v-45c0-12.407 10.094-22.011 22.5-22.011z" fill='#fff'/></g></svg>