<svg id="Capa_1" enable-background="new 0 0 512 512" height="512" viewBox="0 0 512 512" width="512" xmlns="http://www.w3.org/2000/svg"><g>
<path d="m256 99.58c-86.25 0-156.42 70.17-156.42 156.42s70.17 156.42 156.42 156.42 156.42-70.17 156.42-156.42-70.17-156.42-156.42-156.42zm0 282.84c-69.708 0-126.42-56.712-126.42-126.42s56.712-126.42 126.42-126.42 126.42 56.712 126.42 126.42-56.712 126.42-126.42 126.42z" fill='#fff'/>
<path d="m497 211h-29.274c-5.493-25.871-15.775-50.676-30.21-72.88l20.719-20.712c5.856-5.855 5.859-15.357.001-21.215l-42.43-42.43c-5.854-5.855-15.359-5.857-21.215.001l-20.711 20.72c-22.204-14.435-47.009-24.717-72.88-30.21v-29.274c0-8.284-6.716-15-15-15h-60c-8.284 0-15 6.716-15 15v29.274c-25.871 5.493-50.676 15.775-72.88 30.21l-20.712-20.719c-5.857-5.859-15.357-5.86-21.215-.001l-42.43 42.43c-5.855 5.855-5.857 15.357.001 21.215l20.719 20.712c-14.435 22.204-24.717 47.009-30.21 72.88h-29.273c-8.284 0-15 6.716-15 15v60c0 8.284 6.716 15 15 15h29.274c5.493 25.871 15.775 50.676 30.21 72.88l-20.718 20.711c-5.856 5.854-5.86 15.357-.002 21.215l42.429 42.43c5.854 5.854 15.358 5.857 21.215-.001l20.712-20.719c22.204 14.435 47.009 24.717 72.88 30.21v29.273c0 8.284 6.716 15 15 15h60c8.284 0 15-6.716 15-15v-29.274c25.871-5.493 50.676-15.775 72.88-30.21l20.712 20.719c5.845 5.848 15.345 5.871 21.215.001l42.429-42.43c5.855-5.855 5.857-15.358-.002-21.215l-20.718-20.711c14.435-22.204 24.717-47.009 30.21-72.88h29.274c8.284 0 15-6.716 15-15v-60c0-8.284-6.716-15-15-15zm-15 60h-26.8c-7.429 0-13.739 5.438-14.836 12.786-4.462 29.898-16.348 58.572-34.371 82.92-4.421 5.972-3.803 14.28 1.451 19.533l18.97 18.963-21.213 21.213-18.963-18.97c-5.253-5.255-13.561-5.872-19.533-1.451-24.348 18.022-53.021 29.908-82.92 34.371-7.347 1.096-12.785 7.406-12.785 14.835v26.8h-30v-26.8c0-7.429-5.438-13.739-12.786-14.835-29.899-4.463-58.572-16.348-82.92-34.371-5.971-4.421-14.28-3.804-19.533 1.451l-18.963 18.97-21.213-21.213 18.97-18.963c5.254-5.253 5.872-13.561 1.451-19.533-18.023-24.348-29.908-53.021-34.371-82.92-1.096-7.348-7.406-12.786-14.835-12.786h-26.8v-30h26.8c7.429 0 13.739-5.438 14.836-12.786 4.462-29.899 16.348-58.572 34.371-82.92 4.42-5.972 3.803-14.28-1.451-19.533l-18.97-18.964 21.213-21.213 18.963 18.97c5.253 5.254 13.561 5.872 19.533 1.451 24.348-18.022 53.021-29.908 82.92-34.37 7.347-1.096 12.785-7.406 12.785-14.835v-26.8h30v26.8c0 7.429 5.438 13.739 12.786 14.836 29.898 4.462 58.572 16.348 82.92 34.37 5.972 4.421 14.279 3.803 19.533-1.451l18.963-18.97 21.213 21.213-18.97 18.964c-5.254 5.253-5.872 13.561-1.451 19.533 18.023 24.348 29.908 53.021 34.371 82.92 1.096 7.347 7.406 12.785 14.835 12.785h26.8z" fill='#fff'/></g></svg>