<svg id="Capa_1" enable-background="new 0 0 512 512" height="512" viewBox="0 0 512 512" width="512" xmlns="http://www.w3.org/2000/svg"><g>
<path d="m474.765 350.206 37.235-18.623-37.235-69.992v-16.478c0-33.843-11.84-66.833-33.34-92.892-19.557-23.705-46.217-40.701-75.711-48.414-32.527-61.673-97.294-103.807-171.713-103.807-106.972 0-194.001 87.058-194.001 194.065 0 105.99 85.381 192.406 190.954 194.04l27.093 123.895h170.108l25.247-59.526h24.958c19.184 0 36.165-11.521 43.259-29.35 6.294-15.815 3.543-33.323-6.854-46.281zm-444.775-156.141c0-90.465 73.575-164.065 164.011-164.065s164.011 73.6 164.011 164.065-73.575 164.065-164.011 164.065-164.011-73.599-164.011-164.065zm419.69 199.728c5.017 4.694 6.616 11.852 4.076 18.235-2.525 6.345-8.568 10.445-15.395 10.445h-65.608l-19.869-25.984-23.82 18.227 28.872 37.758h22.89l-12.524 29.526h-126.116l-20.944-95.777c94.123-13.287 166.761-94.396 166.761-192.158 0-18.264-2.536-35.946-7.273-52.714 38.374 19.309 64.045 59.203 64.045 103.762v23.963l26.299 49.436-26.299 13.153v57.535z" fill='#fff'/>
<path d="m267.408 126.702-99.533 99.565-53.278-53.297-21.206 21.214 74.484 74.51 120.739-120.779z" fill='#fff'/></g></svg>