<?xml version="1.0" encoding="iso-8859-1"?>
<!-- Generator: Adobe Illustrator 16.0.0, SVG Export Plug-In . SVG Version: 6.00 Build 0)  -->
<!DOCTYPE svg PUBLIC "-//W3C//DTD SVG 1.1//EN" "http://www.w3.org/Graphics/SVG/1.1/DTD/svg11.dtd">
<svg version="1.1" id="Capa_1" xmlns="http://www.w3.org/2000/svg" xmlns:xlink="http://www.w3.org/1999/xlink" x="0px" y="0px"
	 width="15px" height="15px" viewBox="0 0 51.048 51.049" style="enable-background:new 0 0 51.048 51.049;"
	 xml:space="preserve">
<g>
	<path d="M17.211,34.723c-0.436-0.039-0.888-0.08-1.337-0.115c-2.673-0.2-5.835,2.275-7.187,5.629
		c-0.706,1.751-0.205,4.301,1.276,6.496c1.851,2.742,4.735,4.314,7.913,4.316l0,0c0.267,0,0.539-0.012,0.816-0.035
		c7.355-0.601,10.29-7.978,10.373-8.201L41.012,17.07c0.161-0.295,3.901-7.3-0.386-13.305C38.893,1.337,36.291,0,33.298,0
		c-3.264,0-6.402,1.661-7.464,3.949c-1.508,3.249-1.812,7.59,0.595,9.235l2.546,1.742l-9.267,19.96
		C19.181,34.885,18.214,34.811,17.211,34.723z M22.362,36.294l9.392-20.226c0.567-1.225,0.14-2.781-0.975-3.543l-2.656-1.817
		c-0.567-0.388-0.833-2.768,0.433-5.495C29.049,4.149,31.003,3,33.299,3c1.413,0,3.407,0.435,4.887,2.508
		c3.183,4.458,0.223,10.071,0.151,10.21l-12.03,25.917c-0.023,0.061-2.399,5.942-7.859,6.389c-0.194,0.016-0.385,0.023-0.572,0.023
		l0,0c-3.074,0-4.819-2.094-5.426-2.994c-1.005-1.488-1.255-3.015-0.981-3.695c0.906-2.25,2.835-3.762,4.068-3.762l0.1,0.004
		c0.439,0.033,0.88,0.074,1.307,0.11c1.023,0.091,1.989,0.177,2.681,0.177c0.607,0,1.01-0.065,1.35-0.224
		C21.595,37.375,22.088,36.889,22.362,36.294z"/>
</g>
<g>
</g>
<g>
</g>
<g>
</g>
<g>
</g>
<g>
</g>
<g>
</g>
<g>
</g>
<g>
</g>
<g>
</g>
<g>
</g>
<g>
</g>
<g>
</g>
<g>
</g>
<g>
</g>
<g>
</g>
</svg>
